<?xml version="1.0" encoding="utf-8"?>
<!-- Generator: Adobe Illustrator 22.0.1, SVG Export Plug-In . SVG Version: 6.00 Build 0)  -->
<svg version="1.1" id="Layer_1" xmlns="http://www.w3.org/2000/svg" xmlns:xlink="http://www.w3.org/1999/xlink" x="0px" y="0px"
	 viewBox="0 0 374 314" style="enable-background:new 0 0 374 314;" xml:space="preserve">
<style type="text/css">
	.st0{fill:none;}
	.st1{fill:#BCBCBC;}
	.st2{font-family:'GoogleSans-Medium';}
	.st3{font-size:24px;}
	.st4{fill:#1CE8B5;}
	.st5{fill:#FFD500;}
	.st6{fill:#536DFE;}
	.st7{fill:#FF6C00;}
</style>
<rect x="121.7" y="241.9" class="st0" width="130.2" height="35.6"/>
<text transform="matrix(1 0 0 1 160.4399 259.0933)" class="st1 st2 st3">Seoul</text>
<g id="XMLID_271_">
	<g>
		<path class="st1" d="M84.6,181.4H62.5v15.4h19.9v5.8H62.5v15.4h22.1v6H56.2v-48.6h28.4V181.4z"/>
		<path class="st1" d="M117.5,224h-7.3l-8.2-12.3L93.9,224h-7.3l11.7-16.9l-11.5-16.3h7.1l8.2,11.7l7.8-11.7h7.3l-11.6,16.3
			L117.5,224z"/>
		<path class="st1" d="M134.9,224.6c-3.5,0-6.1-0.9-8-2.8c-1.8-1.9-2.7-4.5-2.7-7.9v-17.4h-5.8v-5.7h5.8v-10.2h6.2v10.2h8.1v5.7
			h-8.1v17c0,3.6,1.5,5.4,4.5,5.4c1.1,0,2.1-0.2,2.8-0.5l2.2,5.4C138.6,224.3,136.9,224.6,134.9,224.6z"/>
		<path class="st1" d="M157.9,225.1c-5,0-9.1-1.7-12.2-5c-3.1-3.3-4.7-7.6-4.7-12.7c0-4.8,1.5-9,4.6-12.5c3.1-3.5,7-5.2,11.7-5.2
			c4.9,0,8.9,1.6,11.8,4.8c3,3.2,4.4,7.5,4.4,12.9l-0.1,1.2h-26.2c0.2,3.3,1.3,6,3.4,7.9c2.1,1.9,4.5,2.9,7.2,2.9
			c4.5,0,7.5-1.9,9.1-5.7l5.6,2.3c-1.1,2.6-2.9,4.7-5.4,6.5C164.6,224.3,161.5,225.1,157.9,225.1z M166.8,203.4
			c-0.1-1.9-1-3.7-2.6-5.4c-1.6-1.7-4-2.6-7.2-2.6c-2.3,0-4.3,0.7-6,2.2c-1.7,1.4-2.9,3.4-3.5,5.8H166.8z"/>
		<path class="st1" d="M183.8,190.8v4.6h0.3c0.9-1.6,2.3-2.9,4.3-4c1.9-1.1,4-1.7,6.2-1.7c4.1,0,7.3,1.3,9.4,3.8
			c2.2,2.5,3.3,5.9,3.3,10.2V224H201v-19.4c0-6.1-2.7-9.2-8.2-9.2c-2.6,0-4.7,1-6.3,3.1c-1.6,2.1-2.4,4.4-2.4,7.2V224h-6.2v-33.2
			H183.8z"/>
		<path class="st1" d="M227.1,225.1c-4.3,0-8-1.7-11.1-5.1c-3.1-3.4-4.7-7.6-4.7-12.6c0-5,1.6-9.2,4.7-12.6
			c3.1-3.4,6.8-5.1,11.1-5.1c2.5,0,4.8,0.5,6.8,1.6c2,1.1,3.5,2.4,4.5,4.1h0.3l-0.3-4.6v-15.3h6.2V224h-6v-4.6h-0.3
			c-1,1.6-2.5,3-4.5,4.1C232,224.6,229.7,225.1,227.1,225.1z M228.2,219.4c2.9,0,5.4-1.1,7.5-3.3c2.1-2.2,3.1-5.1,3.1-8.8
			s-1-6.6-3.1-8.7c-2.1-2.2-4.6-3.3-7.5-3.3c-2.9,0-5.4,1.1-7.5,3.3c-2.1,2.2-3.1,5.1-3.1,8.7c0,3.6,1,6.5,3.1,8.7
			C222.8,218.3,225.3,219.4,228.2,219.4z"/>
		<path class="st1" d="M265.7,225.1c-5,0-9.1-1.7-12.2-5c-3.1-3.3-4.7-7.6-4.7-12.7c0-4.8,1.5-9,4.6-12.5c3.1-3.5,7-5.2,11.7-5.2
			c4.9,0,8.9,1.6,11.8,4.8c3,3.2,4.4,7.5,4.4,12.9l-0.1,1.2H255c0.2,3.3,1.3,6,3.4,7.9c2.1,1.9,4.5,2.9,7.2,2.9
			c4.5,0,7.5-1.9,9.1-5.7l5.6,2.3c-1.1,2.6-2.9,4.7-5.4,6.5C272.3,224.3,269.3,225.1,265.7,225.1z M274.6,203.4
			c-0.1-1.9-1-3.7-2.6-5.4c-1.6-1.7-4-2.6-7.2-2.6c-2.3,0-4.3,0.7-6,2.2c-1.7,1.4-2.9,3.4-3.5,5.8H274.6z"/>
		<path class="st1" d="M299.9,225.1c-4.3,0-8-1.7-11.1-5.1c-3.1-3.4-4.7-7.6-4.7-12.6c0-5,1.6-9.2,4.7-12.6
			c3.1-3.4,6.8-5.1,11.1-5.1c2.5,0,4.8,0.5,6.8,1.6c2,1.1,3.5,2.4,4.5,4.1h0.3l-0.3-4.6v-15.3h6.2V224h-6v-4.6h-0.3
			c-1,1.6-2.5,3-4.5,4.1C304.7,224.6,302.4,225.1,299.9,225.1z M300.9,219.4c2.9,0,5.4-1.1,7.5-3.3c2.1-2.2,3.1-5.1,3.1-8.8
			s-1-6.6-3.1-8.7c-2.1-2.2-4.6-3.3-7.5-3.3c-2.9,0-5.4,1.1-7.5,3.3c-2.1,2.2-3.1,5.1-3.1,8.7c0,3.6,1,6.5,3.1,8.7
			C295.5,218.3,298,219.4,300.9,219.4z"/>
	</g>
</g>
<polygon class="st4" points="144.2,144.5 144.2,143.5 143.2,144.5 "/>
<polygon class="st4" points="99.2,54.5 99.2,55.5 100.2,54.5 "/>
<polygon class="st4" points="144.2,57 99.2,102 99.2,104.7 144.2,59.6 "/>
<polygon class="st4" points="144.2,66.3 99.2,111.4 99.2,114 144.2,69 "/>
<polygon class="st4" points="144.2,75.6 99.2,120.7 99.2,123.3 144.2,78.3 "/>
<polygon class="st4" points="144.2,85 99.2,130 99.2,132.6 144.2,87.6 "/>
<polygon class="st4" points="144.2,94.3 99.2,139.3 99.2,141.9 144.2,96.9 "/>
<polygon class="st4" points="144.2,103.6 103.3,144.5 105.9,144.5 144.2,106.2 "/>
<polygon class="st4" points="144.2,112.9 112.6,144.5 115.2,144.5 144.2,115.5 "/>
<polygon class="st4" points="144.2,122.2 121.9,144.5 124.6,144.5 144.2,124.8 "/>
<polygon class="st4" points="133.9,144.5 144.2,134.2 144.2,131.5 131.2,144.5 "/>
<polygon class="st4" points="109.5,54.5 99.2,64.8 99.2,67.4 112.1,54.5 "/>
<polygon class="st4" points="143.2,144.5 144.2,143.5 144.2,140.8 140.5,144.5 "/>
<polygon class="st4" points="100.2,54.5 99.2,55.5 99.2,58.1 102.8,54.5 "/>
<polygon class="st4" points="137.5,54.5 99.2,92.7 99.2,95.4 140.1,54.5 "/>
<polygon class="st4" points="128.1,54.5 99.2,83.4 99.2,86 130.8,54.5 "/>
<polygon class="st4" points="118.8,54.5 99.2,74.1 99.2,76.7 121.5,54.5 "/>
<rect id="XMLID_240_" x="102.5" y="97.6" transform="matrix(0.2206 -0.9754 0.9754 0.2206 31.4571 241.1295)" class="st4" width="128.2" height="6.7"/>
<path class="st5" d="M227.8,76.2c12.9,0,23.3,10.5,23.3,23.3s-10.5,23.3-23.3,23.3c-12.9,0-23.3-10.5-23.3-23.3S215,76.2,227.8,76.2
	 M227.8,71.5c-15.5,0-28,12.5-28,28s12.5,28,28,28s28-12.5,28-28S243.3,71.5,227.8,71.5L227.8,71.5z"/>
<path class="st6" d="M227.8,57.5c23.1,0,42,18.8,42,42s-18.8,42-42,42s-42-18.8-42-42S204.7,57.5,227.8,57.5 M227.8,52.8
	c-25.8,0-46.6,20.9-46.6,46.6s20.9,46.6,46.6,46.6c25.8,0,46.6-20.9,46.6-46.6S253.6,52.8,227.8,52.8L227.8,52.8z"/>
<path class="st7" d="M227.8,94.8c2.6,0,4.7,2.1,4.7,4.7s-2.1,4.7-4.7,4.7c-2.6,0-4.7-2.1-4.7-4.7S225.3,94.8,227.8,94.8 M227.8,90.1
	c-5.2,0-9.3,4.2-9.3,9.3s4.2,9.3,9.3,9.3c5.2,0,9.3-4.2,9.3-9.3S233,90.1,227.8,90.1L227.8,90.1z"/>
</svg>
