<?xml version="1.0" encoding="utf-8"?>
<!-- Generator: Adobe Illustrator 22.0.1, SVG Export Plug-In . SVG Version: 6.00 Build 0)  -->
<svg version="1.1" id="Layer_1" xmlns="http://www.w3.org/2000/svg" xmlns:xlink="http://www.w3.org/1999/xlink" x="0px" y="0px"
	 viewBox="0 0 828 200" style="enable-background:new 0 0 828 200;" xml:space="preserve">
<style type="text/css">
	.st0{fill:#BCBCBC;}
	.st1{fill:#1CE8B5;}
	.st2{fill:#FFD500;}
	.st3{fill:#536DFE;}
	.st4{fill:#FF6C00;}
</style>
<g id="XMLID_148_">
	<g>
		<path class="st0" d="M539.7,83.2h-22.1v15.4h19.9v5.8h-19.9v15.4h22.1v6h-28.4V77.3h28.4V83.2z"/>
		<path class="st0" d="M572.7,125.8h-7.3l-8.2-12.3l-8.1,12.3h-7.3l11.7-16.9L542,92.6h7.1l8.2,11.7l7.8-11.7h7.3l-11.6,16.3
			L572.7,125.8z"/>
		<path class="st0" d="M590.1,126.4c-3.5,0-6.1-0.9-8-2.8c-1.8-1.9-2.7-4.5-2.7-7.9V98.3h-5.8v-5.7h5.8V82.4h6.2v10.2h8.1v5.7h-8.1
			v17c0,3.6,1.5,5.4,4.5,5.4c1.1,0,2.1-0.2,2.8-0.5l2.2,5.4C593.7,126.1,592.1,126.4,590.1,126.4z"/>
		<path class="st0" d="M613.1,126.9c-5,0-9.1-1.7-12.2-5c-3.1-3.3-4.7-7.6-4.7-12.7c0-4.8,1.5-9,4.6-12.5c3.1-3.5,7-5.2,11.7-5.2
			c4.9,0,8.9,1.6,11.8,4.8c3,3.2,4.4,7.5,4.4,12.9l-0.1,1.2h-26.2c0.2,3.3,1.3,6,3.4,7.9c2.1,1.9,4.5,2.9,7.2,2.9
			c4.5,0,7.5-1.9,9.1-5.7l5.6,2.3c-1.1,2.6-2.9,4.7-5.4,6.5C619.7,126,616.7,126.9,613.1,126.9z M622,105.2c-0.1-1.9-1-3.7-2.6-5.4
			c-1.6-1.7-4-2.6-7.2-2.6c-2.3,0-4.3,0.7-6,2.2c-1.7,1.4-2.9,3.4-3.5,5.8H622z"/>
		<path class="st0" d="M639,92.6v4.6h0.3c0.9-1.6,2.3-2.9,4.3-4c1.9-1.1,4-1.7,6.2-1.7c4.1,0,7.3,1.3,9.4,3.8
			c2.2,2.5,3.3,5.9,3.3,10.2v20.3h-6.2v-19.4c0-6.1-2.7-9.2-8.2-9.2c-2.6,0-4.7,1-6.3,3.1c-1.6,2.1-2.4,4.4-2.4,7.2v18.4H633V92.6
			H639z"/>
		<path class="st0" d="M682.3,126.9c-4.3,0-8-1.7-11.1-5.1c-3.1-3.4-4.7-7.6-4.7-12.6c0-5,1.6-9.2,4.7-12.6
			c3.1-3.4,6.8-5.1,11.1-5.1c2.5,0,4.8,0.5,6.8,1.6c2,1.1,3.5,2.4,4.5,4.1h0.3l-0.3-4.6V77.3h6.2v48.6h-6v-4.6h-0.3
			c-1,1.6-2.5,3-4.5,4.1C687.1,126.4,684.8,126.9,682.3,126.9z M683.3,121.2c2.9,0,5.4-1.1,7.5-3.3c2.1-2.2,3.1-5.1,3.1-8.8
			s-1-6.6-3.1-8.7c-2.1-2.2-4.6-3.3-7.5-3.3c-2.9,0-5.4,1.1-7.5,3.3c-2.1,2.2-3.1,5.1-3.1,8.7c0,3.6,1,6.5,3.1,8.7
			C677.9,120.1,680.4,121.2,683.3,121.2z"/>
		<path class="st0" d="M720.8,126.9c-5,0-9.1-1.7-12.2-5c-3.1-3.3-4.7-7.6-4.7-12.7c0-4.8,1.5-9,4.6-12.5c3.1-3.5,7-5.2,11.7-5.2
			c4.9,0,8.9,1.6,11.8,4.8c3,3.2,4.4,7.5,4.4,12.9l-0.1,1.2h-26.2c0.2,3.3,1.3,6,3.4,7.9c2.1,1.9,4.5,2.9,7.2,2.9
			c4.5,0,7.5-1.9,9.1-5.7l5.6,2.3c-1.1,2.6-2.9,4.7-5.4,6.5C727.5,126,724.5,126.9,720.8,126.9z M729.8,105.2
			c-0.1-1.9-1-3.7-2.6-5.4c-1.6-1.7-4-2.6-7.2-2.6c-2.3,0-4.3,0.7-6,2.2c-1.7,1.4-2.9,3.4-3.5,5.8H729.8z"/>
		<path class="st0" d="M755,126.9c-4.3,0-8-1.7-11.1-5.1c-3.1-3.4-4.7-7.6-4.7-12.6c0-5,1.6-9.2,4.7-12.6c3.1-3.4,6.8-5.1,11.1-5.1
			c2.5,0,4.8,0.5,6.8,1.6c2,1.1,3.5,2.4,4.5,4.1h0.3l-0.3-4.6V77.3h6.2v48.6h-6v-4.6h-0.3c-1,1.6-2.5,3-4.5,4.1
			C759.8,126.4,757.6,126.9,755,126.9z M756,121.2c2.9,0,5.4-1.1,7.5-3.3c2.1-2.2,3.1-5.1,3.1-8.8s-1-6.6-3.1-8.7
			c-2.1-2.2-4.6-3.3-7.5-3.3c-2.9,0-5.4,1.1-7.5,3.3c-2.1,2.2-3.1,5.1-3.1,8.7c0,3.6,1,6.5,3.1,8.7
			C750.7,120.1,753.1,121.2,756,121.2z"/>
	</g>
</g>
<polygon class="st1" points="349.4,145.2 349.4,144.1 348.3,145.2 "/>
<polygon class="st1" points="304.3,55.1 304.3,56.1 305.4,55.1 "/>
<polygon class="st1" points="349.4,57.7 304.3,102.7 304.3,105.3 349.4,60.3 "/>
<polygon class="st1" points="349.4,67 304.3,112 304.3,114.7 349.4,69.6 "/>
<polygon class="st1" points="349.4,76.3 304.3,121.3 304.3,124 349.4,78.9 "/>
<polygon class="st1" points="349.4,85.6 304.3,130.6 304.3,133.3 349.4,88.3 "/>
<polygon class="st1" points="349.4,94.9 304.3,140 304.3,142.6 349.4,97.6 "/>
<polygon class="st1" points="349.4,104.2 308.5,145.2 311.1,145.2 349.4,106.9 "/>
<polygon class="st1" points="349.4,113.6 317.8,145.2 320.4,145.2 349.4,116.2 "/>
<polygon class="st1" points="349.4,122.9 327.1,145.2 329.7,145.2 349.4,125.5 "/>
<polygon class="st1" points="339,145.2 349.4,134.8 349.4,132.2 336.4,145.2 "/>
<polygon class="st1" points="314.7,55.1 304.3,65.4 304.3,68.1 317.3,55.1 "/>
<polygon class="st1" points="348.3,145.2 349.4,144.1 349.4,141.5 345.7,145.2 "/>
<polygon class="st1" points="305.4,55.1 304.3,56.1 304.3,58.8 308,55.1 "/>
<polygon class="st1" points="342.6,55.1 304.3,93.4 304.3,96 345.2,55.1 "/>
<polygon class="st1" points="333.3,55.1 304.3,84.1 304.3,86.7 335.9,55.1 "/>
<polygon class="st1" points="324,55.1 304.3,74.8 304.3,77.4 326.6,55.1 "/>
<rect id="XMLID_147_" x="307.7" y="98.2" transform="matrix(0.2206 -0.9754 0.9754 0.2206 190.6985 441.7446)" class="st1" width="128.2" height="6.7"/>
<path class="st2" d="M433,76.8c12.9,0,23.3,10.5,23.3,23.3s-10.5,23.3-23.3,23.3c-12.9,0-23.3-10.5-23.3-23.3S420.1,76.8,433,76.8
	 M433,72.2c-15.5,0-28,12.5-28,28s12.5,28,28,28c15.5,0,28-12.5,28-28S448.4,72.2,433,72.2L433,72.2z"/>
<path class="st3" d="M433,58.2c23.1,0,42,18.8,42,42s-18.8,42-42,42s-42-18.8-42-42S409.8,58.2,433,58.2 M433,53.5
	c-25.8,0-46.6,20.9-46.6,46.6s20.9,46.6,46.6,46.6c25.8,0,46.6-20.9,46.6-46.6S458.7,53.5,433,53.5L433,53.5z"/>
<path class="st4" d="M433,95.5c2.6,0,4.7,2.1,4.7,4.7s-2.1,4.7-4.7,4.7s-4.7-2.1-4.7-4.7S430.4,95.5,433,95.5 M433,90.8
	c-5.2,0-9.3,4.2-9.3,9.3s4.2,9.3,9.3,9.3c5.2,0,9.3-4.2,9.3-9.3S438.1,90.8,433,90.8L433,90.8z"/>
<path id="XMLID_146_" class="st0" d="M54.6,99.1c0-15.3,12.9-27.8,28.2-27.8c8.5,0,14.5,3.3,19.1,7.7l-5.4,5.4
	c-3.3-3.1-7.7-5.4-13.7-5.4c-11.2,0-19.9,9-19.9,20.2c0,11.2,8.8,20.2,19.9,20.2c7.3,0,11.4-2.9,14-5.6c2.2-2.2,3.6-5.3,4.1-9.6
	H82.8v-7.6h25.6c0.3,1.4,0.4,3,0.4,4.7c0,5.7-1.6,12.8-6.6,17.8c-4.9,5.1-11.1,7.8-19.4,7.8C67.5,126.9,54.6,114.4,54.6,99.1z"/>
<path id="XMLID_143_" class="st0" d="M129.5,91.1c-9.9,0-18,7.5-18,17.9c0,10.3,8.1,17.9,18,17.9c9.9,0,18-7.6,18-17.9
	C147.4,98.6,139.4,91.1,129.5,91.1z M129.5,119.9c-5.4,0-10.1-4.5-10.1-10.9c0-6.4,4.7-10.9,10.1-10.9c5.4,0,10.1,4.4,10.1,10.9
	C139.6,115.4,134.9,119.9,129.5,119.9z"/>
<path id="XMLID_140_" class="st0" d="M168.7,91.1c-9.9,0-18,7.5-18,17.9c0,10.3,8.1,17.9,18,17.9c9.9,0,18-7.6,18-17.9
	C186.7,98.6,178.6,91.1,168.7,91.1z M168.7,119.9c-5.4,0-10.1-4.5-10.1-10.9c0-6.4,4.7-10.9,10.1-10.9c5.4,0,10.1,4.4,10.1,10.9
	C178.8,115.4,174.1,119.9,168.7,119.9z"/>
<path id="XMLID_136_" class="st0" d="M216.8,92.2v2.9h-0.3c-1.8-2.1-5.2-4-9.4-4c-9,0-17.2,7.9-17.2,18c0,10,8.2,17.8,17.2,17.8
	c4.3,0,7.7-1.9,9.4-4.1h0.3v2.6c0,6.9-3.7,10.5-9.6,10.5c-4.8,0-7.8-3.5-9-6.4l-6.9,2.8c2,4.7,7.2,10.6,15.9,10.6
	c9.2,0,17-5.4,17-18.7V92.2H216.8z M207.8,119.9c-5.4,0-10-4.5-10-10.8c0-6.3,4.5-10.9,10-10.9c5.4,0,9.6,4.6,9.6,10.9
	C217.4,115.3,213.2,119.9,207.8,119.9z"/>
<rect id="XMLID_135_" x="229.7" y="73.2" class="st0" width="7.9" height="52.6"/>
<path id="XMLID_131_" class="st0" d="M259.1,119.9c-4,0-6.9-1.8-8.7-5.4l23.9-9.9l-0.8-2c-1.5-4-6-11.4-15.3-11.4
	c-9.2,0-16.9,7.3-16.9,17.9c0,10,7.6,17.9,17.8,17.9c8.2,0,13-5,14.9-7.9l-6.1-4.1C265.9,117.9,263.1,119.9,259.1,119.9z M258.5,98
	c3.1,0,5.8,1.6,6.6,3.8l-16,6.6C249,101.5,254.5,98,258.5,98z"/>
</svg>
